<?xml version="1.0" encoding="utf-8"?>
<!-- Generator: Adobe Illustrator 16.0.0, SVG Export Plug-In . SVG Version: 6.00 Build 0)  -->
<!DOCTYPE svg PUBLIC "-//W3C//DTD SVG 1.1//EN" "http://www.w3.org/Graphics/SVG/1.1/DTD/svg11.dtd">
<svg version="1.1" id="Layer_1" xmlns="http://www.w3.org/2000/svg" xmlns:xlink="http://www.w3.org/1999/xlink" x="0px" y="0px"
	 width="2547px" height="1234.5px" viewBox="0 0 2547 1234.5" enable-background="new 0 0 2547 1234.5" xml:space="preserve">
<path id="f123" fill-rule="evenodd" clip-rule="evenodd" fill="none" d="M421.5,222c-14.31,0.305-69.552,1.15-73.5-5.25
	c-1.101-1.544-3.922-36.937-3-39.75c3.044-9.293,8.787-3.376,9-20.25c0.25-0.75,0.5-1.5,0.75-2.25c0.75-0.25,1.5-0.5,2.25-0.75
	c13.906-6.016,26.875,4.045,33.75,8.25c8.311-4.988,12.589-11.299,27.75-8.25c0.25,0.75,0.5,1.5,0.75,2.25
	c4.786,12.217-5.35,24.218-3,31.5c2.354,4.951,5.059,2.643,8.25,6c0,9.999,0,20.001,0,30c-0.25,0-0.5,0-0.75,0s-0.5,0-0.75,0
	c-0.25-2-0.5-4-0.75-6c-0.25,0-0.5,0-0.75,0C421.5,219,421.5,220.5,421.5,222z"/>
<path id="f122_1_" fill-rule="evenodd" clip-rule="evenodd" fill="none" d="M423,64.5c0,9.999,0,20.001,0,30
	c-3.75,3.5-7.5,7-11.25,10.5c0.5,1.25,1,2.5,1.5,3.75c4.295,0.362,7.191,0.729,9,3.75c2.263,4.682-0.428,10.978-3.75,12.75
	c-14.468,5.849-55.756-0.595-66.75-3c-5.612,3.941-7.577,4.151-17.25,3.75c0-19.998,0-40.002,0-60C363.997,65.5,393.503,65,423,64.5
	z"/>
<path id="f124" fill-rule="evenodd" clip-rule="evenodd" fill="none" d="M420,222c-0.07,23.355,0.007,32.74,0,54
	c-14.244,0.144-20.472-3.911-31.5-4.5c0,1.5,0,3,0,4.5c-13.999,0-28.001,0-42,0c-0.047-7.847,4.458-13.948,3-19.5
	c-1.688-6.428-10.703-16.383-5.25-30c4.792-11.628,21.821-9.537,38.25-9c0,1,0,2,0,3c-2,0.25-4,0.5-6,0.75c0,0.25,0,0.5,0,0.75
	C390.999,222,405.501,222,420,222z"/>
<path id="f125" fill-rule="evenodd" clip-rule="evenodd" fill="none" d="M421.5,355.5c-18.345,1.974-59.598,8.774-75.75-1.5
	c-1.53-15.455-1.544-37.791,1.5-54c1.25-1,2.5-2,3.75-3c10.983-0.563,16.156-0.541,21,6c9.775-4.064,29.926-8.697,48-5.25
	c0.25,0.75,0.5,1.5,0.75,2.25C421,318.498,421.25,337.002,421.5,355.5z"/>
<path id="f115" fill-rule="evenodd" clip-rule="evenodd" fill="none" d="M678,297c48.995,0,98.005,0,147,0c0,9.499,0,19.001,0,28.5
	c-2.5,0-5,0-7.5,0c0,18.498,0,37.002,0,55.5c-13.999,0-28.001,0-42,0c-2.5-1.75-5-3.5-7.5-5.25c-0.5,0.25-1,0.5-1.5,0.75
	c-0.25,0.25-0.5,0.5-0.75,0.75c-8.774,4.877-13.177,4.088-26.25,3.75c-0.25-1.5-0.5-3-0.75-4.5c-3.942-7.07-6.823,0.633-12-2.25
	c-4.251-2.748-4.153-8.461-3.75-15.75c-10.152,0.003-26.131,1.224-30.75-2.25c-2.938,1.631-3.428,4.347-7.5,5.25c0-0.5,0-1,0-1.5
	c-0.5-6.999-1-14.001-1.5-21c-0.75-0.25-1.5-0.5-2.25-0.75c-1.5-0.25-3-0.5-4.5-0.75C677,324.001,677.5,310.499,678,297z"/>
<path id="f112" fill-rule="evenodd" clip-rule="evenodd" fill="none" d="M823.5,552c1.5,0.25,3,0.5,4.5,0.75c0,0.25,0,0.5,0,0.75
	c-8.259,1.511-9.412,12.786-9,22.5c-13.499,0.5-27.001,1-40.5,1.5c-0.25,0.75-0.5,1.5-0.75,2.25c0.25,1.75,0.5,3.5,0.75,5.25
	c-9.499,0-19.001,0-28.5,0c0-2,0-4,0-6c-3,0-6,0-9,0c0.113-18.322,0.658-39.557-1.5-55.5c1.5,0.25,3,0.5,4.5,0.75
	c1.104,2.6,1.14,3.903,3.75,5.25c2.75,0.75,5.5,1.5,8.25,2.25c0.25-0.75,0.5-1.5,0.75-2.25c6.404-17.694,0.906-9.068,15-16.5
	c1.162-6.418,2.229-10.272,7.5-12.75c6.749,0,13.501,0,20.25,0c1.404-3.893,1.856-7.903,4.5-10.5c1,0.75,2,1.5,3,2.25
	c0.903,3.566,1.598,5.151,4.5,6.75c5.5,0.25,11,0.5,16.5,0.75c0,0.25,0,0.5,0,0.75C824.627,510.666,823.462,539.592,823.5,552z"/>
</svg>
